<svg width="64" height="64" viewBox="0 0 64 64" fill="none" xmlns="http://www.w3.org/2000/svg">
<g clip-path="url(#clip0_1_4)">
<path d="M32 0C14.3 0 0 14.337 0 32C0 49.7 14.337 64 32 64C49.7 64 64 49.663 64 32C64 14.337 49.663 0 32 0Z" fill="#1ED760"/>
<path d="M15 32.625C15 36.1109 16.0337 39.5185 17.9703 42.4169C19.907 45.3153 22.6597 47.5744 25.8802 48.9084C29.1008 50.2424 32.6446 50.5914 36.0635 49.9113C39.4824 49.2313 42.6229 47.5527 45.0878 45.0878C47.5527 42.6229 49.2313 39.4824 49.9113 36.0635C50.5914 32.6446 50.2424 29.1008 48.9084 25.8802C47.5744 22.6597 45.3153 19.907 42.4169 17.9703C39.5185 16.0337 36.1109 15 32.625 15C27.6977 15.0185 22.9684 16.9411 19.4258 20.3658L15 24.7917" stroke="white" stroke-width="5" stroke-linecap="round" stroke-linejoin="round"/>
<path d="M15 15V24.7917H24.7917" stroke="white" stroke-width="5" stroke-linecap="round" stroke-linejoin="round"/>
<path d="M33 24V33.7917L40.8333 37.7083" stroke="white" stroke-width="4" stroke-linecap="round" stroke-linejoin="round"/>
</g>
<defs>
<clipPath id="clip0_1_4">
<rect width="64" height="64" fill="white"/>
</clipPath>
</defs>
</svg>
